# xmcd CD database file
#
# Track frame offsets:
#	182
#	12347
#	25410
#	45470
#	61817
#	73262
#	87217
#	103670
#	117232
#	130262
#	144842
#	159027
#	175392
#	185592
#	200055
#
# Disc length: 2811 seconds
#
# Revision: 0
# Processed by: cddbd v1.4PL0 Copyright (c) Steve Scherf et al.
# Submitted via: CDex 1.40Release
#
DISCID=cc0af90f
DTITLE=The Moffatts - The Moffatts
DYEAR=1995
DGENRE=Country
TTITLE0=I Think She Likes Me
TTITLE1=This Boy
TTITLE2=Guns Of Love
TTITLE3=Mama Never Told Me Bout You
TTITLE4=Just Thinkin About You
TTITLE5=When God Made You
TTITLE6=Caterpillar Crawl
TTITLE7=You Are What You Do
TTITLE8=A Little Something
TTITLE9=Don't Judge This Book
TTITLE10=What A Wonderful World
TTITLE11=Itty Bitty Smile
TTITLE12=Bird Dog
TTITLE13=I Think I'm Falling In Love
TTITLE14=Do Wah Diddy Diddy
EXTD=YEAR: 1995 ID3G: 2
EXTT0=
EXTT1=
EXTT2=
EXTT3=
EXTT4=
EXTT5=
EXTT6=
EXTT7=
EXTT8=
EXTT9=
EXTT10=
EXTT11=
EXTT12=
EXTT13=
EXTT14=
PLAYORDER=
